<svg width="150" height="150" viewBox="0 0 150 150" fill="none" xmlns="http://www.w3.org/2000/svg">
<g clip-path="url(#clip0_61_2)">
<path d="M144.553 82.8771L150 75L144.553 67.1229L148.156 58.2402L141.117 51.7877L142.626 42.3184L134.33 37.6257L133.743 28.0726L124.609 25.3911L121.927 16.257L112.374 15.6704L107.682 7.3743L98.2123 8.88268L91.7598 1.84358L82.8771 5.44693L75 0L67.1229 5.44693L58.324 1.84358L51.8715 8.88268L42.486 7.3743L37.7933 15.6704L28.2402 16.257L25.5587 25.3911L16.4246 28.0726L15.838 37.6257L7.5419 42.3184L9.05028 51.7877L2.01117 58.2402L5.61453 67.1229L0 75L5.44693 82.8771L1.84358 91.7598L8.88268 98.2123L7.3743 107.682L15.6704 112.374L16.257 121.927L25.3911 124.609L28.0726 133.743L37.6257 134.33L42.3184 142.626L51.7877 141.117L58.2402 148.156L67.1229 144.553L75 150L82.8771 144.553L91.7598 148.156L98.2123 141.117L107.682 142.626L112.374 134.33L121.927 133.743L124.609 124.609L133.743 121.927L134.33 112.374L142.626 107.682L141.117 98.2123L148.156 91.7598L144.553 82.8771ZM75 139.525C39.3855 139.525 10.4749 110.615 10.4749 75C10.4749 39.3855 39.3855 10.4749 75 10.4749C110.615 10.4749 139.525 39.3855 139.525 75C139.525 110.615 110.615 139.525 75 139.525Z" fill="#5F967D"/>
<path d="M75 22.0391C104.246 22.0391 127.961 45.8379 127.961 75C127.961 104.162 104.162 127.961 75 127.961C45.838 127.961 22.0391 104.162 22.0391 75C22.0391 45.8379 45.7542 22.0391 75 22.0391ZM75 17.8491C43.4078 17.8491 17.8492 43.4078 17.8492 75C17.8492 106.592 43.4078 132.151 75 132.151C106.592 132.151 132.151 106.592 132.151 75C132.151 43.4078 106.592 17.8491 75 17.8491Z" fill="#5F967D"/>
<path d="M40.9777 108.352C40.3911 108.1 39.4693 107.43 38.6313 106.341C36.5363 103.827 36.5363 100.559 39.5531 98.1284C42.4022 95.782 45.838 96.1172 48.1844 98.9663C49.1061 100.056 49.4413 100.978 49.5251 101.397L48.352 101.899C48.1844 101.313 47.8492 100.559 47.2626 99.8043C45.5028 97.7094 42.9888 97.3742 40.6425 99.3853C38.4637 101.229 38.0447 103.659 39.8883 105.838C40.4749 106.508 41.229 107.179 41.8156 107.43L40.9777 108.352Z" fill="#5F967D"/>
<path d="M52.3743 110.866L48.6871 108.184L46.1732 111.536L50.2793 114.553L49.5251 115.559L44.2458 111.704L51.1173 102.318L56.229 106.006L55.4749 107.011L51.6201 104.162L49.4413 107.095L53.1285 109.776L52.3743 110.866Z" fill="#5F967D"/>
<path d="M58.1564 107.262C58.9106 107.43 60 107.765 60.9218 108.1C62.4302 108.687 63.2682 109.357 63.6871 110.279C64.0223 110.949 64.0223 111.871 63.6871 112.709C63.1006 114.134 61.8436 114.72 60.5028 114.637V114.72C61.257 115.391 61.4246 116.312 61.1732 117.569C60.9218 119.245 60.7542 120.335 60.7542 120.838L59.3296 120.251C59.2458 119.916 59.4134 118.826 59.6648 117.402C60 115.81 59.581 114.972 58.4078 114.385L57.067 113.882L55.1397 118.575L53.7151 117.988L58.1564 107.262ZM57.486 112.793L58.9106 113.38C60.419 113.966 61.676 113.547 62.1788 112.374C62.7654 110.949 62.0112 109.944 60.5028 109.357C59.8324 109.106 59.3296 108.938 59.0782 108.938L57.486 112.793Z" fill="#5F967D"/>
<path d="M69.0503 111.955L65.5307 111.452L65.6983 110.195L74.2458 111.452L74.0782 112.709L70.5587 112.206L69.0503 122.514L67.5419 122.262L69.0503 111.955Z" fill="#5F967D"/>
<path d="M77.3464 111.117L77.7654 122.765L76.257 122.849L75.838 111.201L77.3464 111.117Z" fill="#5F967D"/>
<path d="M80.2793 110.95L86.3966 109.609L86.648 110.866L81.9553 111.871L82.7933 115.642L87.067 114.721L87.3184 115.978L83.0447 116.899L84.1341 122.095L82.6257 122.43L80.2793 110.95Z" fill="#5F967D"/>
<path d="M90 108.101L94.4413 118.911L93.0168 119.497L88.5754 108.687L90 108.101Z" fill="#5F967D"/>
<path d="M101.061 108.855L97.2905 111.285L99.5531 114.804L103.827 112.039L104.497 113.128L98.9665 116.648L92.6816 106.843L97.9609 103.408L98.6313 104.497L94.6089 107.095L96.6201 110.195L100.391 107.765L101.061 108.855Z" fill="#5F967D"/>
<path d="M99.8045 102.402C100.307 101.648 100.978 100.726 101.732 99.888C103.156 98.2958 104.581 97.4578 106.006 97.374C107.43 97.2064 108.855 97.7092 110.196 98.9662C111.62 100.223 112.374 101.732 112.458 103.24C112.542 104.748 111.788 106.508 110.279 108.184C109.525 109.022 108.939 109.609 108.352 110.111L99.8045 102.402ZM108.436 108.184C108.771 107.933 109.106 107.514 109.525 107.095C111.704 104.665 111.536 102.234 109.19 100.056C107.179 98.212 104.832 98.212 102.654 100.558C102.151 101.145 101.816 101.648 101.564 101.983L108.436 108.184Z" fill="#5F967D"/>
<path d="M48.5195 49.3575C48.352 49.9441 47.933 51.0335 47.0112 52.1229C45 54.7207 41.8156 55.3073 38.7989 52.9609C35.9497 50.6983 35.5307 47.1788 37.7933 44.4134C38.7151 43.2402 39.4693 42.7374 39.8883 42.5698L40.6425 43.6592C40.0559 43.9106 39.3855 44.4134 38.7989 45.1676C37.1229 47.3464 37.3743 49.7765 39.7207 51.7039C41.9832 53.4637 44.4134 53.2961 46.1732 51.1173C46.7598 50.3631 47.1788 49.5251 47.3464 48.8547L48.5195 49.3575Z" fill="#5F967D"/>
<path d="M52.1229 40.1397L48.5196 42.8213L51.0335 46.1733L55.0559 43.1565L55.8101 44.1621L50.5307 48.1006L43.5754 38.8828L48.6033 35.1118L49.3575 36.1174L45.5028 38.9666L47.7654 41.8995L51.3687 39.218L52.1229 40.1397Z" fill="#5F967D"/>
<path d="M53.3799 32.5141C54.0503 32.0951 54.9721 31.5923 55.9777 31.1733C57.486 30.5867 58.4916 30.4191 59.4972 30.7543C60.2514 31.0057 60.838 31.5923 61.1732 32.4303C61.7598 33.8549 61.257 35.1957 60.3352 36.0337V36.1175C61.257 36.0337 62.095 36.6203 62.8492 37.6258C63.8547 38.9666 64.5251 39.8884 64.9441 40.2236L63.5196 40.8102C63.1844 40.5588 62.5978 39.7208 61.7598 38.5476C60.838 37.2068 60 36.8717 58.743 37.3744L57.4022 37.961L59.3296 42.6538L57.8212 43.0728L53.3799 32.5141ZM56.8156 36.7879L58.2402 36.2013C59.7486 35.6147 60.3352 34.3577 59.8324 33.1845C59.2458 31.7599 57.9888 31.5923 56.4804 32.1789C55.8101 32.4303 55.3911 32.6817 55.1397 32.8493L56.8156 36.7879Z" fill="#5F967D"/>
<path d="M67.7095 29.1621L64.1899 29.6648L64.0223 28.4079L72.5698 27.1509L72.7374 28.4079L69.2179 28.9107L70.6425 39.2179L69.2179 39.3855L67.7095 29.1621Z" fill="#5F967D"/>
<path d="M78.1006 27.4022L77.5978 39.0502L76.0894 38.9664L76.5922 27.3184L78.1006 27.4022Z" fill="#5F967D"/>
<path d="M83.2961 27.8213L89.4134 29.2459L89.162 30.5029L84.4693 29.4135L83.6313 33.1844L87.905 34.19L87.6536 35.3632L83.3799 34.3576L82.2067 39.4693L80.6983 39.1341L83.2961 27.8213Z" fill="#5F967D"/>
<path d="M95.2793 31.5925L90.6704 42.3187L89.3296 41.7321L93.9385 31.0059L95.2793 31.5925Z" fill="#5F967D"/>
<path d="M101.648 42.4022L97.8771 39.8882L95.5307 43.4077L99.7207 46.2569L99.0503 47.3463L93.6033 43.6591L100.056 33.9385L105.251 37.458L104.581 38.5474L100.559 35.8659L98.5475 38.9664L102.318 41.4804L101.648 42.4022Z" fill="#5F967D"/>
<path d="M109.525 41.1455C110.196 41.7321 111.034 42.4863 111.788 43.4081C113.212 45.0841 113.799 46.5086 113.715 47.9332C113.631 49.3578 113.045 50.6986 111.62 51.8718C110.196 53.1287 108.603 53.6315 107.095 53.5477C105.587 53.4639 103.911 52.4584 102.486 50.6986C101.816 49.8606 101.229 49.1902 100.81 48.5198L109.525 41.1455ZM102.654 49.0226C102.821 49.3578 103.156 49.7768 103.575 50.1958C105.67 52.626 108.184 52.7936 110.531 50.7824C112.626 49.0226 112.961 46.6762 110.866 44.2461C110.363 43.6595 109.944 43.2405 109.609 42.9891L102.654 49.0226Z" fill="#5F967D"/>
<path d="M55.8101 80.5306V81.0333C55.5587 81.0333 55.0559 81.0333 54.3855 81.0333C53.7151 81.0333 53.2961 81.0333 52.9609 81.0333C52.7095 81.0333 52.2905 81.0333 51.7039 81.0333C51.1173 81.0333 50.6983 81.0333 50.4469 81.0333V80.5306C51.2849 80.4468 51.7039 80.1954 51.7039 79.8602C51.7039 79.6926 51.6201 79.4412 51.5363 79.1898L50.6145 76.9272H47.1788L46.3408 79.106C46.1732 79.4412 46.1732 79.6926 46.1732 79.8602C46.1732 80.2792 46.5922 80.5306 47.514 80.5306V81.0333C47.2626 81.0333 46.9274 81.0333 46.4246 81.0333C45.9218 81.0333 45.5866 81.0333 45.3352 81.0333C45.0838 81.0333 44.8324 81.0333 44.4134 81.0333C43.9944 81.0333 43.6592 81.0333 43.4916 81.0333V80.5306C44.162 80.4468 44.6648 80.2792 45 79.944C45.1676 79.7764 45.419 79.2736 45.7542 78.5194L49.1061 70.3071C49.1899 69.9719 49.2737 69.8043 49.3575 69.6367L49.6089 69.0501L50.4469 68.9663C50.5307 69.3015 50.6145 69.6367 50.7821 70.0557C50.8659 70.3071 50.9497 70.5585 51.1173 70.9775L54.3017 78.8546C54.5531 79.525 54.8045 79.944 54.9721 80.1954C54.7207 80.363 55.2235 80.4468 55.8101 80.5306ZM50.1955 76.0054L48.7709 72.5697L47.4302 76.0054H50.1955Z" fill="#5F967D"/>
<path d="M68.7151 80.5306V81.0333C68.4637 81.0333 67.9609 81.0333 67.2905 81.0333C66.6201 81.0333 66.2011 81.0333 65.8659 81.0333C65.6145 81.0333 65.1955 81.0333 64.6089 81.0333C64.0223 81.0333 63.6033 81.0333 63.352 81.0333V80.5306C64.1899 80.4468 64.6089 80.1954 64.6089 79.8602C64.6089 79.6926 64.5251 79.4412 64.4413 79.1898L63.5196 76.9272H60.0838L59.2458 79.106C59.0782 79.4412 59.0782 79.6926 59.0782 79.8602C59.0782 80.2792 59.4972 80.5306 60.419 80.5306V81.0333C60.1676 81.0333 59.8324 81.0333 59.3296 81.0333C58.8268 81.0333 58.4916 81.0333 58.2402 81.0333C57.9888 81.0333 57.7374 81.0333 57.3184 81.0333C56.8994 81.0333 56.5642 81.0333 56.3966 81.0333V80.5306C57.067 80.4468 57.5698 80.2792 57.905 79.944C58.0726 79.7764 58.324 79.2736 58.6592 78.5194L62.0112 70.3071C62.095 69.9719 62.1788 69.8043 62.2626 69.6367L62.514 69.0501L63.352 68.9663C63.4358 69.3015 63.5196 69.6367 63.6871 70.0557C63.7709 70.3071 63.8547 70.5585 64.0223 70.9775L67.2067 78.8546C67.4581 79.525 67.7095 79.944 67.8771 80.1954C67.6257 80.363 68.1285 80.4468 68.7151 80.5306ZM63.1006 76.0054L61.676 72.5697L60.3352 76.0054H63.1006Z" fill="#5F967D"/>
<path d="M78.6034 69.2178C78.5196 69.972 78.4358 70.8938 78.4358 71.9831H77.7654C77.5978 71.1452 77.4302 70.6424 77.095 70.391C76.8436 70.1396 76.257 70.0558 75.419 70.0558H73.9106C73.6592 70.0558 73.4916 70.0558 73.4916 70.1396C73.4078 70.2234 73.324 70.3072 73.324 70.5586V74.4971L77.2626 74.4133L77.3464 74.4971V75.6703C76.3408 75.5865 75 75.5027 73.4078 75.5027V79.3574C73.4078 79.8602 73.6592 80.1954 74.0782 80.4468C74.3296 80.5306 74.7486 80.6144 75.419 80.6144V81.1172C75.0838 81.1172 74.581 81.1172 73.9106 81.1172C73.2402 81.1172 72.7374 81.1172 72.4022 81.1172C72.1508 81.1172 71.648 81.1172 70.8939 81.1172C70.1397 81.1172 69.6369 81.1172 69.3855 81.1172V80.6144C70.0559 80.5306 70.5587 80.4468 70.7263 80.2792C70.9777 80.1116 71.0615 79.6926 71.0615 79.0222V70.8938C71.0615 70.391 70.8938 70.1396 70.5587 69.972C70.3911 69.8882 70.0559 69.8044 69.4693 69.8044V69.3016C69.7207 69.3016 70.2235 69.3016 70.9776 69.3016C71.7318 69.3016 72.2346 69.3016 72.486 69.3016C73.1564 69.3016 74.162 69.3016 75.5028 69.3016C76.9274 69.3016 77.933 69.2178 78.6034 69.2178Z" fill="#5F967D"/>
<path d="M90.6704 77.6814C90.419 78.687 90.2514 79.6926 90.1676 80.6982C88.743 81.1171 87.486 81.2847 86.229 81.2847C84.3017 81.2847 82.7095 80.7819 81.4525 79.7764C80.1117 78.687 79.5251 77.1786 79.5251 75.2512C79.5251 73.1563 80.2793 71.5641 81.8715 70.3909C83.2123 69.4691 84.9721 68.9663 87.067 68.9663C88.1564 68.9663 89.2458 69.1339 90.3352 69.3853C90.2514 70.1395 90.2514 71.1451 90.2514 72.4021L89.581 72.4859C89.4134 70.7261 88.4078 69.8881 86.648 69.8881C85.2235 69.8881 84.1341 70.3909 83.3799 71.3127C82.7095 72.2345 82.2905 73.4076 82.2905 74.9998C82.2905 76.592 82.6257 77.849 83.2961 78.8546C84.0503 79.944 85.0559 80.5306 86.4804 80.5306C88.2402 80.5306 89.4134 79.525 90.1676 77.5976L90.6704 77.6814Z" fill="#5F967D"/>
<path d="M104.749 74.9998C104.749 76.9272 104.078 78.5194 102.821 79.6088C101.648 80.6981 100.056 81.2009 98.2123 81.2009C96.2849 81.2009 94.6927 80.6981 93.5195 79.6926C92.2626 78.6032 91.676 77.0948 91.676 75.1674C91.676 73.24 92.3464 71.6479 93.6033 70.5585C94.7765 69.4691 96.3687 68.9663 98.2123 68.9663C100.14 68.9663 101.732 69.4691 102.905 70.4747C104.162 71.6479 104.749 73.0725 104.749 74.9998ZM102.067 75.5026C102.067 73.9942 101.816 72.7373 101.313 71.7317C100.642 70.4747 99.5531 69.8043 98.2123 69.8043C96.8715 69.8043 95.8659 70.3909 95.1955 71.4803C94.6927 72.3183 94.4413 73.4076 94.4413 74.8322C94.4413 76.3406 94.6927 77.5976 95.1955 78.6032C95.8659 79.8602 96.9553 80.5306 98.2961 80.5306C99.6369 80.5306 100.642 79.944 101.313 78.8546C101.816 77.9328 102.067 76.8434 102.067 75.5026Z" fill="#5F967D"/>
<path d="M33.7709 69.6367L35.0279 73.7429H39.3855L35.8659 76.2568L37.2067 80.363L33.7709 77.849L30.2514 80.363L31.5922 76.2568L28.0726 73.7429H32.4302L33.7709 69.6367Z" fill="#5F967D"/>
<path d="M116.313 69.6367L117.57 73.7429H121.927L118.408 76.2568L119.749 80.363L116.313 77.849L112.793 80.363L114.134 76.2568L110.615 73.7429H114.972L116.313 69.6367Z" fill="#5F967D"/>
<path d="M75 11.9834C40.2235 11.9834 11.9832 40.2236 11.9832 75.0002C11.9832 109.777 40.2235 138.017 75 138.017C109.777 138.017 138.017 109.777 138.017 75.0002C138.017 40.2236 109.777 11.9834 75 11.9834ZM75 135.587C41.4804 135.587 14.4134 108.436 14.4134 75.0002C14.4134 41.4806 41.5642 14.4136 75 14.4136C108.52 14.4136 135.587 41.5644 135.587 75.0002C135.587 108.52 108.52 135.587 75 135.587Z" fill="#5F967D"/>
</g>
<defs>
<clipPath id="clip0_61_2">
<rect width="150" height="150" fill="white"/>
</clipPath>
</defs>
</svg>
