<svg width="144" height="144" viewBox="0 0 144 144" fill="none" xmlns="http://www.w3.org/2000/svg">
<g clip-path="url(#clip0_51_92)">
<path d="M53.2145 76.8799C55.7549 74.6069 57.8941 70.7294 56.6908 67.32C55.4206 63.7768 51.5432 62.6403 48.2005 61.9049C45.1253 61.2364 41.7827 60.6347 40.7799 57.2253C39.7771 53.9495 41.9164 50.9412 44.0557 48.6682C48 44.4565 53.6156 41.7824 59.298 41.047C60.1003 40.9133 59.9666 39.8437 59.1643 39.9774C54.1504 40.7796 49.6713 42.5177 45.5933 45.5261C42.5181 47.7991 38.8412 51.008 38.2395 55.0191C37.6379 59.3645 40.5125 62.0386 44.5237 62.9077C47.1978 63.5094 50.0724 63.5094 52.5459 64.9801C57.6936 67.9885 54.351 72.5345 52.4791 76.345C52.2117 76.7462 52.8134 77.2141 53.2145 76.8799Z" fill="#5F967D"/>
<path d="M61.9053 40.2451C63.9108 27.4095 66.4512 11.6991 80.4234 6.88578C80.156 6.68522 79.8886 6.48466 79.5543 6.21725C79.4874 7.62115 79.688 9.22561 79.4206 10.6295C79.0863 12.234 77.883 13.7716 77.1476 15.1755C75.8106 17.5822 74.6072 20.0557 73.337 22.5292C70.5292 28.0111 67.5877 33.3593 63.9108 38.3064C64.312 38.507 64.7131 38.7744 65.0473 38.9749C65.7827 37.8384 66.5181 36.6351 67.3203 35.4986C66.9192 35.298 66.5181 35.0306 66.1838 34.8301C65.5153 36.0334 64.6462 37.1699 63.9108 38.3064C64.312 38.507 64.7131 38.7744 65.0473 38.9749C69.9944 31.22 76.3454 22.8635 83.6991 17.3147C84.9025 16.4457 87.0418 14.7075 88.6462 15.2423C92.1894 16.312 88.0445 21.727 86.8412 23.1309C81.3593 29.8161 74.3398 35.2312 67.5877 40.4457C67.1198 40.7799 67.1866 41.7827 67.922 41.7159C78.6184 40.5794 91.5877 38.507 101.616 43.6546C110.306 48.1337 108.501 58.2284 105.894 65.9164C105.627 66.6518 106.696 67.0529 107.097 66.4512C107.9 65.181 108.769 63.9109 109.905 62.9081C112.245 60.7688 116.123 61.0362 116.256 64.8468C116.39 67.7883 114.184 71.1309 112.379 73.2702C111.844 73.9387 112.78 74.8746 113.315 74.2061C115.721 71.2646 119.465 65.4485 116.591 61.7047C112.98 56.9582 107.9 62.507 105.827 65.7159C106.228 65.9164 106.63 66.0501 107.031 66.2507C109.504 58.9638 111.376 49.2702 104.357 43.8551C100.011 40.5125 93.9276 39.6434 88.5794 39.2423C81.6267 38.7744 74.6741 39.5766 67.7883 40.312C67.922 40.7131 67.9888 41.1142 68.1225 41.5822C74.5404 36.6351 80.9582 31.5543 86.3732 25.5376C88.4457 23.2646 93.5264 17.7827 90.117 14.6407C87.7771 12.5014 84.3677 14.9749 82.429 16.4457C78.351 19.5877 74.8746 23.6657 71.6657 27.6769C68.8579 31.0863 66.117 34.5627 63.7103 38.3064C63.2423 39.0418 64.3788 39.7103 64.8468 38.9749C65.5822 37.8384 66.4512 36.7019 67.1198 35.4986C67.5209 34.7632 66.4512 34.1615 65.9833 34.8301C65.181 35.9666 64.4457 37.1699 63.7103 38.3064C63.2423 39.0418 64.3788 39.6434 64.8468 38.9749C68.8579 33.5599 72 27.61 75.0752 21.6602C76.4791 18.8524 77.9498 16.0446 79.4874 13.3036C80.8245 10.9638 80.5571 8.9582 80.6239 6.28411C80.6239 5.88299 80.156 5.48188 79.7549 5.61558C65.2479 10.6295 62.3732 26.5404 60.3008 39.9109C60.5014 40.7131 61.7716 41.1142 61.9053 40.2451Z" fill="#5F967D"/>
<path d="M84.5682 73.9387C84.9693 74.1393 85.3036 73.9387 85.3705 73.1365C85.4373 72.5348 84.9693 71.9332 84.5682 71.4652C83.1643 69.6602 82.2953 67.4541 82.0947 65.1811C82.2284 66.585 85.1031 73.4039 86.9749 71.9332C86.5738 71.2646 85.9053 70.7967 85.4373 70.195C83.5654 68.1226 82.6964 65.3148 82.8969 62.507C83.0306 60.1003 83.9666 57.961 85.3036 56.156C85.571 55.8886 85.7716 55.6212 86.039 55.4206C86.8412 54.6184 87.7771 53.9499 88.7799 53.4151C89.3816 53.0808 89.7159 52.9471 90.2507 52.8134C90.5181 52.7465 90.8524 52.6797 91.1198 52.6128C91.2535 52.6128 91.3872 52.546 91.5209 52.546C91.5877 52.546 92.1894 52.4791 91.7214 52.4791C93.3927 52.3454 94.7298 51.0084 94.3287 49.2702C93.9276 47.532 92.0557 46.9304 90.5181 47.5989C85.7716 49.5376 81.4262 53.6825 80.0891 58.7632C79.3538 61.7048 79.4206 64.78 80.3565 67.6546C80.7576 68.9917 81.493 70.3287 82.1615 71.4652C82.3621 71.7995 83.6992 73.5376 84.5682 73.9387Z" fill="#5F967D"/>
<path d="M79.7549 5.54863C78.5515 4.81325 77.0808 5.28122 75.8774 5.74918C73.2033 6.88567 70.9304 8.75754 69.0585 10.9637C67.1866 13.2366 65.7159 15.7102 64.5125 18.3843C63.0418 21.66 62.2395 25.0027 61.6379 28.5458C60.9694 32.4233 60.5682 36.3676 60.7019 40.3787C60.7019 40.9135 61.5042 40.9135 61.5042 40.3787C61.3036 37.3704 61.4373 34.4288 61.8384 31.4873C62.2396 28.4121 63.2423 25.4706 64.312 22.5291C66.117 17.6489 68.4568 12.9692 72.3343 9.42606C73.4039 8.49013 74.5404 7.62105 75.7437 6.95253C76.4791 6.55141 77.2145 6.1503 78.0167 6.01659C79.0863 5.81604 80.3565 6.48456 80.0891 7.75476C80.0223 8.02216 80.4234 8.22272 80.5571 7.95531C81.0919 7.15308 80.624 6.08345 79.7549 5.54863Z" fill="#5F967D"/>
<path d="M88.7131 18.3841C87.9777 16.9134 86.1058 17.6488 85.0362 18.1836C83.3649 18.919 81.8941 19.9886 80.4234 21.0582C77.415 23.2644 74.6072 25.8048 72 28.4788C69.1253 31.4872 66.3175 34.763 64.4457 38.5067C64.2451 38.841 64.7131 39.1752 64.9805 38.841C67.0529 36.3006 68.9248 33.6265 71.1309 31.1529C73.2033 28.7463 75.4763 26.5401 77.883 24.5346C80.3565 22.4621 83.0306 20.1223 86.039 18.919C86.3732 18.7853 86.8412 18.5178 87.2423 18.5847C87.9777 18.7184 87.9108 19.4538 87.7771 19.9886C87.5766 20.8577 87.1755 21.5931 86.7075 22.3284C85.7716 23.7323 84.5682 25.0025 83.4317 26.2727C80.8245 29.2142 77.9498 31.8215 75.2089 34.6961C75.0083 34.8967 75.2757 35.3646 75.5432 35.1641C78.8189 32.958 81.5599 30.0833 84.1671 27.1418C85.4373 25.7379 86.7075 24.2672 87.7103 22.7295C88.4457 21.5262 89.3816 19.7212 88.7131 18.3841Z" fill="#5F967D"/>
<path d="M49.5376 59.4319C46.7966 58.6965 43.1866 58.3622 41.7827 55.4876C40.2451 52.4124 43.7214 49.2703 45.7939 47.4653C48.3342 45.1923 51.2757 43.3873 54.4178 42.1171C54.6184 42.0502 54.4847 41.6491 54.2841 41.716C51.7437 42.6519 49.2702 43.8553 46.9972 45.3929C44.7911 46.9305 42.5849 48.5349 40.9805 50.7411C39.4429 52.8135 39.0418 55.5544 40.6462 57.6937C42.2507 59.833 44.8579 60.7689 47.3983 61.17C49.0028 61.4374 50.6741 61.5711 52.2785 61.9722C53.7493 62.3734 54.9526 63.2424 56.0223 64.3121C56.156 64.4458 56.4234 64.3121 56.3565 64.1115C55.4206 61.2369 52.078 60.1004 49.5376 59.4319Z" fill="#5F967D"/>
<path d="M56.6908 69.9943C56.2897 71.1308 55.688 72.1335 55.0863 73.2032C54.4847 74.206 54.0167 75.2088 53.4819 76.2784C53.415 76.4789 53.6156 76.6127 53.7493 76.4789C54.6852 75.6767 55.4206 74.6739 55.8886 73.5374C56.4234 72.401 56.6908 71.1976 56.9582 70.0611C57.025 69.9274 56.7576 69.8606 56.6908 69.9943Z" fill="#5F967D"/>
<path d="M118.396 57.2925C117.928 57.0251 117.46 56.6908 116.925 56.624C116.323 56.5571 115.721 56.5571 115.187 56.7577C114.05 57.1588 112.914 57.7605 111.911 58.4958C110.975 59.1644 110.039 59.8997 109.237 60.7688C108.368 61.6379 107.766 62.6407 107.031 63.6435C106.897 63.844 107.231 64.1783 107.432 63.9777C108.167 63.1755 109.036 62.5738 109.905 61.9053C110.774 61.2368 111.643 60.5683 112.579 60.0334C113.515 59.4986 114.384 58.9638 115.387 58.4958C115.922 58.2953 116.457 58.0279 116.992 57.8942C117.46 57.7605 117.928 57.5599 118.462 57.6268C118.462 57.493 118.529 57.3593 118.396 57.2925Z" fill="#5F967D"/>
<path d="M113.114 74.4735C113.181 74.4066 113.248 74.4066 113.248 74.3398C114.652 73.2701 115.721 71.7994 116.724 70.3955C118.73 67.454 119.933 63.7771 119.064 60.3008C118.997 60.1002 118.797 60.1671 118.797 60.3676C119.331 64.0445 117.46 67.2534 115.32 69.9944C114.384 71.1977 113.315 72.4011 112.379 73.6044C112.379 73.6044 112.379 73.6044 112.312 73.6713C112.579 73.9387 112.847 74.2061 113.114 74.4735Z" fill="#5F967D"/>
<path d="M32.5571 103.354C31.22 103.955 28.6797 104.624 25.337 104.557C17.649 104.49 11.8997 99.5431 12.0334 90.5849C12.1671 82.0278 17.9833 76.3454 26.4735 76.4122C29.883 76.4791 32.0223 77.2144 32.9582 77.6824L32.0891 80.557C30.7521 79.8885 28.8802 79.3537 26.6072 79.3537C20.1894 79.2869 15.9109 83.298 15.7771 90.4512C15.7103 97.1364 19.454 101.482 26.1393 101.549C28.2785 101.549 30.4847 101.148 31.8886 100.479L32.5571 103.354Z" fill="#5F967D" stroke="#5F967D" stroke-miterlimit="10" stroke-linecap="round" stroke-linejoin="round"/>
<path d="M36.9025 90.7855C36.9025 88.4457 36.9025 86.5069 36.8356 84.6351L39.9777 84.7019L40.0446 88.5794H40.1783C41.1142 85.9721 43.2535 84.3008 45.6602 84.3677C46.0613 84.3677 46.3287 84.4345 46.6629 84.5014L46.5961 87.844C46.2618 87.7771 45.8607 87.7103 45.3927 87.7103C42.8524 87.7103 41.0473 89.5821 40.5794 92.2562C40.5125 92.7242 40.3788 93.3259 40.3788 93.9275L40.2451 104.357L36.7019 104.29L36.9025 90.7855Z" fill="#5F967D" stroke="#5F967D" stroke-miterlimit="10" stroke-linecap="round" stroke-linejoin="round"/>
<path d="M66.4512 99.3424C66.4512 101.348 66.4512 103.153 66.5181 104.691L63.376 104.624L63.2423 101.415H63.1755C62.2395 102.952 60.1003 105.025 56.6239 104.958C53.5487 104.891 49.8719 103.153 49.9387 96.2672L50.0724 84.8354L53.6156 84.9023L53.4819 95.7992C53.415 99.543 54.5515 102.083 57.7604 102.083C60.1671 102.083 61.8384 100.479 62.507 98.8744C62.7075 98.3396 62.8412 97.6711 62.8412 97.0694L62.9749 85.036L66.5181 85.1029L66.4512 99.3424Z" fill="#5F967D" stroke="#5F967D" stroke-miterlimit="10" stroke-linecap="round" stroke-linejoin="round"/>
<path d="M74.4067 95.5989C74.4067 100.412 77.4819 102.418 81.0251 102.485C83.5655 102.485 85.1031 102.084 86.4401 101.549L87.0418 104.089C85.7716 104.624 83.6323 105.292 80.4902 105.226C74.4735 105.159 70.9304 101.148 70.9972 95.1977C71.0641 89.3147 74.6072 84.7019 80.3565 84.7688C86.7744 84.8356 88.3788 90.5181 88.312 94.1281C88.312 94.8635 88.2451 95.3983 88.1783 95.7994L74.4067 95.5989ZM84.8356 93.1922C84.9025 90.9192 83.9666 87.376 79.9554 87.3092C76.3454 87.2423 74.7409 90.5849 74.4067 93.0585L84.8356 93.1922Z" fill="#5F967D" stroke="#5F967D" stroke-miterlimit="10" stroke-linecap="round" stroke-linejoin="round"/>
<path d="M92.9248 76.2783L96.4679 76.3452L96.0668 105.092L92.5237 105.025L92.9248 76.2783Z" fill="#5F967D" stroke="#5F967D" stroke-miterlimit="10" stroke-linecap="round" stroke-linejoin="round"/>
<path d="M106.763 79.9551L106.696 85.5707L111.777 85.6375L111.71 88.3785L106.63 88.3116L106.496 98.8743C106.496 101.281 107.164 102.685 109.103 102.685C110.039 102.685 110.708 102.551 111.175 102.484L111.309 105.158C110.641 105.426 109.504 105.626 108.167 105.626C106.496 105.626 105.159 105.092 104.357 104.089C103.354 103.019 103.019 101.281 103.019 98.9412L103.153 88.2448L100.145 88.1779L100.212 85.437L103.22 85.5038L103.287 80.8242L106.763 79.9551Z" fill="#5F967D" stroke="#5F967D" stroke-miterlimit="10" stroke-linecap="round" stroke-linejoin="round"/>
<path d="M117.46 85.7045L121.604 97.3369C122.006 98.6071 122.474 100.212 122.808 101.348H122.875C123.276 100.145 123.677 98.6739 124.212 97.27L128.223 85.8382L131.967 85.9051L126.418 99.8104C123.811 106.496 122.006 109.905 119.532 111.978C117.794 113.515 115.989 114.05 115.12 114.251L114.251 111.242C115.12 110.975 116.323 110.44 117.393 109.571C118.396 108.835 119.599 107.432 120.468 105.627C120.602 105.292 120.735 104.958 120.735 104.757C120.735 104.557 120.669 104.29 120.535 103.822L113.515 85.6377L117.46 85.7045Z" fill="#5F967D" stroke="#5F967D" stroke-miterlimit="10" stroke-linecap="round" stroke-linejoin="round"/>
<path d="M50.1393 114.184L59.6992 114.317V116.256L52.4123 116.189L52.3454 122.072L59.0306 122.139V124.011L52.3454 123.944L52.2117 131.966H49.9387L50.1393 114.184Z" fill="#5F967D" stroke="#5F967D" stroke-miterlimit="10" stroke-linecap="round" stroke-linejoin="round"/>
<path d="M62.1059 123.343C62.1059 121.872 62.1059 120.535 62.039 119.398H64.0446L64.1114 121.872H64.2451C64.8468 120.201 66.2507 119.131 67.7883 119.131C68.0557 119.131 68.2563 119.131 68.4568 119.198V121.404C68.1894 121.337 67.9889 121.337 67.6546 121.337C66.0501 121.337 64.8468 122.54 64.5125 124.278C64.4457 124.613 64.3788 124.947 64.3788 125.348L64.312 132.1H62.039L62.1059 123.343Z" fill="#5F967D" stroke="#5F967D" stroke-miterlimit="10" stroke-linecap="round" stroke-linejoin="round"/>
<path d="M71.6657 126.284C71.6657 129.426 73.6713 130.696 75.9443 130.763C77.6156 130.763 78.6184 130.495 79.4875 130.161L79.8886 131.832C79.0863 132.167 77.6824 132.568 75.6769 132.568C71.7326 132.501 69.4596 129.894 69.5265 126.083C69.5933 122.273 71.8663 119.264 75.61 119.264C79.7549 119.331 80.8245 123.008 80.8245 125.348C80.8245 125.816 80.7577 126.217 80.7577 126.417L71.6657 126.284ZM78.4847 124.679C78.5515 123.208 77.9499 120.935 75.3426 120.869C73.0028 120.869 71.9331 123.008 71.7326 124.612L78.4847 124.679Z" fill="#5F967D" stroke="#5F967D" stroke-miterlimit="10" stroke-linecap="round" stroke-linejoin="round"/>
<path d="M84.8357 126.417C84.8357 129.56 86.8412 130.83 89.1142 130.897C90.7855 130.897 91.7883 130.629 92.6574 130.295L93.0585 131.966C92.2563 132.3 90.8524 132.702 88.8468 132.702C84.9025 132.635 82.6295 130.027 82.6964 126.217C82.7632 122.406 85.0362 119.398 88.78 119.398C92.9248 119.465 93.9944 123.142 93.9944 125.482C93.9944 125.949 93.9276 126.351 93.9276 126.551L84.8357 126.417ZM91.6546 124.88C91.7215 123.409 91.1198 121.136 88.5125 121.069C86.1727 121.069 85.1031 123.209 84.9025 124.813L91.6546 124.88Z" fill="#5F967D" stroke="#5F967D" stroke-miterlimit="10" stroke-linecap="round" stroke-linejoin="round"/>
<path d="M72 142.997C111.211 142.997 142.997 111.211 142.997 72.0001C142.997 32.7895 111.211 1.00293 72 1.00293C32.7893 1.00293 1.00278 32.7895 1.00278 72.0001C1.00278 111.211 32.7893 142.997 72 142.997Z" stroke="#5F967D" stroke-width="3" stroke-miterlimit="10"/>
</g>
<defs>
<clipPath id="clip0_51_92">
<rect width="144" height="144" fill="white"/>
</clipPath>
</defs>
</svg>
