<svg width="149" height="149" viewBox="0 0 149 149" fill="none" xmlns="http://www.w3.org/2000/svg">
<g clip-path="url(#clip0_52_2)">
<path d="M74.4997 149C84.055 149 93.5325 147.058 102.311 143.329C111.089 139.6 119.013 134.084 125.694 127.326C132.297 120.567 137.502 112.41 140.92 103.632C144.339 94.8535 145.97 85.4536 145.737 76.1314C145.504 66.8092 143.484 57.5647 139.755 49.097C136.026 40.6293 130.666 32.9385 124.063 26.5683C117.46 20.1981 109.691 15.1486 101.223 11.7304C92.7557 8.3123 83.6665 6.52555 74.5774 6.52555C65.4882 6.52555 56.3991 8.3123 47.9314 11.7304C39.4637 15.1486 31.6175 20.1981 25.092 26.5683C18.4887 32.9385 13.1285 40.6293 9.39959 49.097C5.59302 57.5647 3.5732 66.8092 3.34015 76.1314C3.10709 85.4536 4.73848 94.8535 8.15662 103.632C11.5748 112.41 16.7797 120.49 23.3829 127.326C29.9861 134.084 37.9877 139.6 46.7661 143.329C55.4668 147.058 65.0221 149 74.4997 149ZM74.4997 149C64.9444 149 55.3892 147.136 46.6107 143.562C37.7546 139.989 29.5977 134.706 22.6837 127.947C15.7698 121.266 10.1764 113.265 6.29218 104.409C2.40793 95.5527 0.232746 85.9197 -0.000309486 76.1314C-0.233365 66.4208 1.47571 56.5547 5.04922 47.3879C8.70042 38.2211 14.0607 29.7534 20.9747 22.6064C27.8886 15.537 36.2786 9.78832 45.4455 5.90407C54.6123 2.01981 64.556 0 74.4997 0C79.4715 0 84.4434 0.543796 89.3375 1.47602C94.2317 2.48592 98.9705 3.96194 103.554 5.90407C112.721 9.78832 121.033 15.537 127.947 22.6064C134.861 29.6757 140.299 38.2211 143.872 47.3879C147.446 56.5547 149.155 66.4208 148.922 76.1314C148.689 85.9197 146.514 95.5527 142.63 104.409C138.745 113.265 133.152 121.266 126.238 128.025C119.402 134.706 111.167 139.989 102.311 143.64C93.6102 147.136 84.055 149 74.4997 149Z" fill="#5F967D"/>
<path d="M40.5516 73.7234L36.512 75.8986L35.8905 73.568L40.8623 70.9268H43.5036V93.7662H40.5516V73.7234Z" fill="#5F967D"/>
<path d="M67.0422 82.0355C67.0422 89.804 64.1679 94.0767 59.1183 94.0767C54.6126 94.0767 51.6606 89.8817 51.5829 82.3463C51.5829 74.6554 54.9233 70.4604 59.5068 70.4604C64.3232 70.4604 67.0422 74.7331 67.0422 82.0355ZM54.6126 82.424C54.6126 88.4057 56.477 91.7462 59.2737 91.7462C62.4588 91.7462 63.9348 88.0173 63.9348 82.1909C63.9348 76.5976 62.4588 72.8687 59.2737 72.8687C56.6324 72.8687 54.6126 76.1315 54.6126 82.424Z" fill="#5F967D"/>
<path d="M85.1429 82.0355C85.1429 89.804 82.2685 94.0767 77.219 94.0767C72.7133 94.0767 69.7612 89.8817 69.6835 82.3463C69.6835 74.6554 73.024 70.4604 77.6074 70.4604C82.3462 70.4604 85.1429 74.7331 85.1429 82.0355ZM72.7133 82.424C72.7133 88.4057 74.5777 91.7462 77.3744 91.7462C80.5594 91.7462 82.0355 88.0173 82.0355 82.1909C82.0355 76.5976 80.5594 72.8687 77.3744 72.8687C74.6554 72.8687 72.7133 76.1315 72.7133 82.424Z" fill="#5F967D"/>
<path d="M98.2716 77.2967C98.2716 82.1132 95.708 84.5215 92.756 84.5215C89.8816 84.5215 87.4734 82.2686 87.3957 77.6075C87.3957 73.0241 89.8816 70.4604 92.9113 70.4604C96.1741 70.4604 98.2716 72.9464 98.2716 77.2967ZM89.8816 77.5298C89.8039 80.4818 90.8915 82.657 92.8336 82.657C94.8535 82.657 95.7857 80.4818 95.7857 77.4521C95.7857 74.6554 95.0088 72.3249 92.8336 72.3249C90.8915 72.3249 89.8816 74.6554 89.8816 77.5298ZM92.6006 94.0767L106.04 70.4604H107.982L94.5427 94.0767H92.6006ZM113.187 86.7743C113.187 91.5908 110.624 93.999 107.749 93.999C104.875 93.999 102.467 91.7462 102.389 87.1627C102.389 82.5793 104.875 80.0157 107.905 80.0157C111.09 79.938 113.187 82.424 113.187 86.7743ZM104.797 86.9297C104.797 89.8817 105.885 92.0569 107.749 92.0569C109.769 92.0569 110.701 89.8817 110.701 86.852C110.701 84.0553 109.924 81.7248 107.749 81.7248C105.807 81.8025 104.797 84.0553 104.797 86.9297Z" fill="#5F967D"/>
<path d="M50.6507 56.0107C50.6507 60.128 48.0871 62.3808 45.0573 62.3808C41.8723 62.3808 39.6194 59.8949 39.6194 56.2437C39.6194 52.4371 42.0276 49.8735 45.2127 49.8735C48.5532 49.8735 50.6507 52.4371 50.6507 56.0107ZM41.3285 56.166C41.3285 58.7296 42.7268 61.0602 45.2127 61.0602C47.6986 61.0602 49.097 58.8073 49.097 56.0107C49.097 53.6024 47.854 51.1165 45.2127 51.1165C42.5714 51.1165 41.3285 53.5247 41.3285 56.166Z" fill="#5F967D"/>
<path d="M52.6705 50.2619C53.4473 50.1065 54.6126 50.0288 55.7002 50.0288C57.3316 50.0288 58.4192 50.3395 59.196 51.0387C59.8175 51.5825 60.1282 52.437 60.1282 53.3693C60.1282 55.0007 59.1183 56.0106 57.8754 56.4767V56.5544C58.8076 56.8651 59.3514 57.7196 59.6621 58.9626C60.0506 60.6717 60.3613 61.8369 60.5943 62.303H58.963C58.7299 61.9923 58.4969 60.9047 58.1861 59.4287C57.7977 57.7973 57.1762 57.0982 55.7779 57.0982H54.3019V62.1477H52.7482V50.2619H52.6705ZM54.2242 55.7775H55.8556C57.4869 55.7775 58.5745 54.8453 58.5745 53.447C58.5745 51.8933 57.4093 51.1941 55.7779 51.1941C55.001 51.1941 54.4572 51.2718 54.2242 51.3495V55.7775Z" fill="#5F967D"/>
<path d="M71.5479 61.6039C70.8488 61.837 69.4504 62.3031 67.8191 62.3031C65.9546 62.3031 64.4786 61.837 63.3133 60.6717C62.3034 59.6618 61.6042 58.0304 61.6042 56.166C61.6042 52.5925 64.0902 49.9512 68.1298 49.9512C69.5281 49.9512 70.6157 50.2619 71.1595 50.495L70.7711 51.7379C70.1496 51.4272 69.2951 51.1941 68.1298 51.1941C65.1778 51.1941 63.3133 53.0586 63.3133 56.0106C63.3133 59.0403 65.1778 60.9048 67.9744 60.9048C68.9843 60.9048 69.6835 60.7494 70.0719 60.594V57.0205H67.586V55.7776H71.5479V61.6039Z" fill="#5F967D"/>
<path d="M75.8983 58.3411L74.6554 62.1476H73.024L77.1413 50.1064H79.0057L83.123 62.1476H81.4917L80.171 58.3411H75.8983ZM79.8603 57.0981L78.695 53.6023C78.4619 52.8254 78.2289 52.1263 78.0735 51.4271C77.9181 52.1263 77.6851 52.9031 77.452 53.6023L76.2868 57.0981H79.8603Z" fill="#5F967D"/>
<path d="M84.9098 62.1476V50.1064H86.6189L90.5031 56.2436C91.4353 57.6419 92.1345 58.9625 92.6783 60.1278C92.5229 58.4964 92.5229 57.0204 92.5229 55.156V50.1064H93.9989V62.1476H92.4452L88.6387 56.0105C87.7841 54.6899 87.0073 53.2915 86.3858 51.9709H86.3081C86.3858 53.5246 86.4635 54.9229 86.4635 56.9427V62.1476H84.9098Z" fill="#5F967D"/>
<path d="M98.2716 50.1064V62.1476H96.7179V50.1064H98.2716Z" fill="#5F967D"/>
<path d="M109.381 61.7594C108.837 62.0701 107.672 62.3032 106.195 62.3032C102.777 62.3032 100.214 60.128 100.214 56.1661C100.214 52.3595 102.777 49.7959 106.506 49.7959C107.982 49.7959 108.992 50.1066 109.381 50.3397L108.992 51.5827C108.371 51.2719 107.594 51.1165 106.584 51.1165C103.787 51.1165 101.845 52.9033 101.845 56.0884C101.845 59.0404 103.554 60.9049 106.506 60.9049C107.438 60.9049 108.448 60.6718 109.07 60.4388L109.381 61.7594Z" fill="#5F967D"/>
<path d="M115.673 111.556C89.8816 114.663 83.3561 125.228 81.8024 131.987C86.3858 136.182 93.9989 137.891 103.632 133.463C126.394 123.053 126.704 97.8833 126.704 97.8833C114.508 109.769 101.612 102.078 84.9098 110.235C76.6752 114.275 75.4322 122.587 79.0834 128.724C87.8618 109.381 115.673 111.556 115.673 111.556Z" fill="#5F967D"/>
<path d="M34.4145 111.556C60.206 114.663 66.7315 125.228 68.2852 131.987C63.7018 136.182 56.0886 137.891 46.4557 133.463C23.6163 123.053 23.3055 97.9609 23.3055 97.9609C35.5021 109.847 48.3978 102.156 65.1001 110.313C73.3347 114.352 74.5777 122.665 70.9265 128.802C62.2258 109.381 34.4145 111.556 34.4145 111.556Z" fill="#5F967D"/>
<path d="M23.2278 68.7516L13.4395 66.4987L13.7503 65.1004L19.4213 63.0805C20.7419 62.6144 21.9072 62.3037 22.9948 62.0706C21.6741 61.9153 20.4312 61.6045 18.9552 61.2938L14.8378 60.3616L15.1486 59.1963L24.9369 61.4492L24.6262 62.6921L18.9552 64.6342C17.7122 65.1004 16.4692 65.4888 15.304 65.7218V65.7995C16.5469 66.0326 17.7122 66.2656 19.3436 66.6541L23.5386 67.5863L23.2278 68.7516Z" fill="#5F967D"/>
<path d="M23.2278 56.9431L25.7138 59.1183L25.17 60.3613L17.2461 53.2919L17.8676 51.8159L28.4327 52.5928L27.9666 53.9134L24.6262 53.6804L23.2278 56.9431ZM23.5386 53.525L20.5089 53.2919C19.8097 53.2143 19.1882 53.1366 18.6444 53.0589C19.1105 53.4473 19.6543 53.8357 20.1204 54.2242L22.451 56.244L23.5386 53.525Z" fill="#5F967D"/>
<path d="M21.8295 46.5335L20.2758 49.1748L19.3436 48.631L23.0725 42.1831L24.0047 42.7269L22.451 45.3682L30.1418 49.8739L29.5203 51.0392L21.8295 46.5335Z" fill="#5F967D"/>
<path d="M25.2477 39.3091L29.8311 43.0379C31.5402 44.4363 32.9385 44.2809 33.793 43.271C34.7252 42.1057 34.5699 40.7851 32.8608 39.3867L28.2774 35.6579L29.1319 34.6479L33.6377 38.3768C36.0459 40.319 35.9682 42.4165 34.5699 44.0478C33.2492 45.6015 31.3848 46.0677 28.9765 44.1255L24.3931 40.3966L25.2477 39.3091Z" fill="#5F967D"/>
<path d="M31.6178 32.2392C32.0062 31.6954 32.7054 30.9963 33.3269 30.4525C34.3368 29.5203 35.1913 29.1318 36.0458 29.1318C36.745 29.1318 37.3665 29.4426 37.9103 30.0641C38.7648 31.074 38.7648 32.2392 38.221 33.2491C38.9979 32.9384 39.7747 33.1715 40.707 33.7929C41.8722 34.6475 42.7268 35.1913 43.1152 35.3466L42.1053 36.2012C41.7945 36.1235 41.0177 35.5797 40.0078 34.8805C38.8425 34.026 38.1433 34.026 37.2111 34.7252L36.2789 35.502L39.1533 38.7648L38.1433 39.6193L31.6178 32.2392ZM35.6574 34.8028L36.6673 33.9483C37.6772 33.0161 37.8326 31.8508 37.1334 30.9963C36.2789 29.9864 35.1913 30.2194 34.1814 31.1516C33.7153 31.5401 33.4046 31.9285 33.3269 32.0839L35.6574 34.8028Z" fill="#5F967D"/>
<path d="M43.7367 31.0744L44.5913 34.2595L43.426 34.9586L40.9401 24.6265L42.2607 23.772L50.4953 30.5306L49.3301 31.3074L46.7664 29.2099L43.7367 31.0744ZM45.9119 28.4331L43.5037 26.4909C42.9599 26.0248 42.4938 25.6364 42.1053 25.248C42.3384 25.8695 42.4938 26.4133 42.6491 27.0347L43.3483 29.9868L45.9119 28.4331Z" fill="#5F967D"/>
<path d="M47.3879 20.8973L48.5532 20.3535L52.2044 28.5104L56.0886 26.7237L56.5547 27.7336L51.4275 29.9865L47.3879 20.8973Z" fill="#5F967D"/>
<path d="M58.3415 16.8578C58.963 16.6247 59.7398 16.314 60.7497 16.0809C61.9927 15.7702 63.0026 15.8478 63.7018 16.2363C64.3232 16.547 64.867 17.2462 65.0224 18.1007C65.2555 18.9552 65.1001 19.7321 64.7117 20.3536C64.2456 21.2081 63.2357 21.8296 61.9927 22.1403C61.6043 22.218 61.2935 22.2957 60.9828 22.2957L61.915 26.18L60.672 26.4907L58.3415 16.8578ZM60.672 21.2858C60.9828 21.2858 61.2935 21.2081 61.7596 21.1304C63.3133 20.742 64.0125 19.8098 63.7018 18.4891C63.391 17.1685 62.3811 16.7801 60.9828 17.0908C60.439 17.2462 60.0506 17.3239 59.8175 17.4792L60.672 21.2858Z" fill="#5F967D"/>
<path d="M67.1199 15.0712C67.7414 14.9159 68.6736 14.7605 69.6059 14.6828C71.0042 14.6051 71.8587 14.7605 72.5579 15.3043C73.1017 15.6927 73.4124 16.3919 73.4901 17.1687C73.5678 18.4894 72.8686 19.4216 71.781 19.8877V19.9654C72.5579 20.1985 73.1017 20.8199 73.4124 21.8298C73.8785 23.2282 74.1893 24.1604 74.4223 24.5488L73.1017 24.6265C72.9463 24.3935 72.6356 23.5389 72.2471 22.296C71.8587 20.9753 71.2372 20.4315 70.072 20.5092L68.829 20.5869L69.1397 24.9372L67.8191 25.0149L67.1199 15.0712ZM68.829 19.577L70.1497 19.4993C71.548 19.4216 72.3248 18.5671 72.2471 17.4018C72.1695 16.0811 71.1596 15.615 69.7612 15.6927C69.1397 15.7704 68.6736 15.8481 68.5183 15.9258L68.829 19.577Z" fill="#5F967D"/>
<path d="M84.5991 20.0429C84.2883 23.4611 82.0355 25.0924 79.4719 24.9371C76.8306 24.704 75.1215 22.5288 75.4322 19.4991C75.743 16.314 77.8405 14.4496 80.5595 14.6826C83.2784 14.838 84.8321 17.0909 84.5991 20.0429ZM76.8306 19.5768C76.6752 21.752 77.6074 23.6941 79.6272 23.9272C81.647 24.0825 82.9677 22.2958 83.2007 20.0429C83.3561 18.0231 82.5016 15.8479 80.4041 15.6925C78.2289 15.4595 76.9859 17.3239 76.8306 19.5768Z" fill="#5F967D"/>
<path d="M88.0172 15.9258C88.7941 16.0035 89.7263 16.1588 90.7362 16.4696C92.5229 16.9357 93.6882 17.7125 94.3097 18.8001C94.9312 19.81 95.1642 21.053 94.6981 22.6844C94.232 24.2381 93.3775 25.4034 92.2899 26.0248C91.1246 26.6463 89.4932 26.724 87.6288 26.2579C86.7742 26.0248 85.9974 25.7918 85.3759 25.481L88.0172 15.9258ZM86.8519 24.8596C87.1627 25.0149 87.6288 25.1703 88.0949 25.248C90.7362 26.0248 92.6006 24.8596 93.3775 22.296C93.999 20.0431 93.1444 18.1786 90.5031 17.4795C89.8816 17.3241 89.3379 17.2464 89.0271 17.1687L86.8519 24.8596Z" fill="#5F967D"/>
<path d="M99.9807 19.6547L97.4171 25.015C96.4072 27.0348 96.951 28.3554 98.1163 28.8992C99.4369 29.5207 100.758 29.0546 101.69 27.1125L104.253 21.7522L105.419 22.296L102.855 27.5786C101.534 30.3752 99.5146 30.7637 97.5725 29.8314C95.708 28.9769 94.8535 27.1901 96.1741 24.3935L98.7377 19.0332L99.9807 19.6547Z" fill="#5F967D"/>
<path d="M108.604 36.124C108.06 36.0463 107.128 35.6579 106.195 34.9587C103.865 33.3273 103.166 30.6083 105.108 27.967C106.895 25.4034 109.924 24.9373 112.41 26.7241C113.42 27.4232 113.886 28.1224 114.119 28.4331L113.265 29.1323C113.032 28.6662 112.566 28.1224 111.866 27.6563C109.924 26.258 107.827 26.6464 106.273 28.7439C104.875 30.7637 105.108 32.8612 107.05 34.2595C107.671 34.7256 108.448 35.0364 108.992 35.1141L108.604 36.124Z" fill="#5F967D"/>
<path d="M117.227 32.4725L115.052 30.375L115.828 29.5981L121.189 34.803L120.412 35.5799L118.237 33.4047L112.022 39.7749L111.09 38.8427L117.227 32.4725Z" fill="#5F967D"/>
</g>
<defs>
<clipPath id="clip0_52_2">
<rect width="149" height="149" fill="white"/>
</clipPath>
</defs>
</svg>
