<svg width="226" height="151" viewBox="0 0 226 151" fill="none" xmlns="http://www.w3.org/2000/svg">
<g clip-path="url(#clip0_106_1753)">
<path d="M145.694 133.066V132.94C145.694 130.474 145.235 128.216 144.36 126.126C143.485 124.036 142.193 122.196 140.568 120.649C138.942 119.103 136.984 117.89 134.733 117.012C132.483 116.135 129.982 115.716 127.273 115.716H113.771V150.457H127.273C129.982 150.457 132.441 149.997 134.733 149.119C136.984 148.241 138.942 146.987 140.568 145.44C142.193 143.893 143.443 142.054 144.36 139.922C145.277 137.79 145.694 135.49 145.694 133.066ZM137.734 133.149C137.734 134.696 137.484 136.117 136.984 137.372C136.484 138.626 135.775 139.713 134.858 140.632C133.941 141.552 132.858 142.263 131.566 142.764C130.274 143.266 128.857 143.517 127.315 143.517H121.439V122.573H127.315C128.857 122.573 130.274 122.823 131.566 123.325C132.858 123.827 133.941 124.537 134.858 125.499C135.775 126.419 136.484 127.547 136.984 128.843C137.484 130.139 137.734 131.561 137.734 133.066V133.149ZM187.743 133.066V132.94C187.743 130.474 187.285 128.133 186.368 125.959C185.451 123.785 184.201 121.904 182.575 120.315C180.95 118.726 178.991 117.43 176.783 116.511C174.532 115.549 172.073 115.089 169.406 115.089C166.739 115.089 164.28 115.549 161.988 116.511C159.738 117.472 157.779 118.726 156.154 120.399C154.528 122.029 153.237 123.952 152.32 126.126C151.403 128.3 150.945 130.599 150.945 133.107V133.191C150.945 135.658 151.403 137.999 152.32 140.172C153.237 142.346 154.487 144.228 156.112 145.816C157.737 147.405 159.696 148.701 161.905 149.62C164.155 150.582 166.614 151.042 169.281 151.042C171.948 151.042 174.407 150.582 176.658 149.62C178.908 148.659 180.867 147.405 182.492 145.733C184.117 144.102 185.409 142.179 186.326 140.005C187.285 137.873 187.743 135.532 187.743 133.066ZM179.783 133.149C179.783 134.654 179.533 136.034 179.033 137.33C178.533 138.626 177.824 139.796 176.908 140.8C175.991 141.803 174.907 142.555 173.615 143.141C172.323 143.684 170.907 143.977 169.406 143.977C167.864 143.977 166.447 143.684 165.155 143.099C163.905 142.514 162.78 141.719 161.821 140.758C160.863 139.754 160.155 138.626 159.654 137.288C159.154 135.95 158.904 134.571 158.904 133.066V132.94C158.904 131.435 159.154 130.056 159.654 128.76C160.155 127.464 160.863 126.293 161.78 125.29C162.697 124.287 163.78 123.534 165.03 122.949C166.281 122.405 167.698 122.113 169.281 122.113C170.781 122.113 172.198 122.405 173.49 122.991C174.782 123.576 175.907 124.37 176.824 125.332C177.783 126.335 178.491 127.464 178.991 128.801C179.491 130.139 179.741 131.519 179.741 133.024V133.149H179.783ZM226 145.524V130.432H210.956V137.037H218.624V142.012C216.665 143.391 214.29 144.102 211.456 144.102C209.914 144.102 208.497 143.81 207.205 143.266C205.955 142.723 204.829 141.97 203.871 140.967C202.912 139.963 202.204 138.793 201.704 137.455C201.204 136.117 200.954 134.654 200.954 133.066V132.94C200.954 131.435 201.204 130.056 201.704 128.76C202.204 127.464 202.912 126.293 203.829 125.332C204.746 124.37 205.788 123.576 206.997 122.991C208.205 122.405 209.497 122.113 210.872 122.113C211.872 122.113 212.748 122.196 213.581 122.363C214.415 122.531 215.165 122.74 215.873 123.074C216.582 123.367 217.248 123.743 217.915 124.161C218.582 124.579 219.249 125.081 219.874 125.666L224.666 119.855C223.791 119.103 222.833 118.434 221.916 117.807C220.957 117.221 219.957 116.72 218.832 116.302C217.748 115.884 216.582 115.591 215.29 115.382C214.039 115.173 212.623 115.048 211.039 115.048C208.413 115.048 205.996 115.507 203.746 116.469C201.537 117.43 199.62 118.685 197.995 120.357C196.37 121.987 195.119 123.91 194.202 126.084C193.286 128.258 192.827 130.557 192.827 133.066V133.149C192.827 135.741 193.286 138.124 194.161 140.298C195.036 142.472 196.286 144.353 197.911 145.942C199.495 147.53 201.412 148.784 203.663 149.662C205.871 150.54 208.372 151 211.039 151C214.206 151 216.998 150.457 219.457 149.37C222.124 148.324 224.208 147.029 226 145.524Z" fill="#B66F64"/>
<path d="M29.2971 150.415V115.675H21.6707V129.429H7.62641V115.675H0V150.415H7.62641V136.452H21.6707V150.415H29.2971ZM67.2207 135.281V115.675H59.5943V135.574C59.5943 138.333 58.9275 140.423 57.6356 141.845C56.3021 143.224 54.4684 143.935 52.1346 143.935C49.8008 143.935 47.9672 143.224 46.6336 141.761C45.3 140.34 44.6749 138.166 44.6749 135.323V115.675H37.0485V135.532C37.0485 140.674 38.3821 144.52 41.0492 147.112C43.7164 149.704 47.3837 151 52.0513 151C54.3434 151 56.4687 150.666 58.3441 150.038C60.2194 149.411 61.8031 148.408 63.1366 147.112C64.4702 145.816 65.4704 144.186 66.1789 142.221C66.8873 140.214 67.2207 137.915 67.2207 135.281ZM106.478 145.524V130.432H91.4335V137.037H99.1016V142.012C97.1429 143.391 94.7675 144.102 91.9336 144.102C90.3917 144.102 88.9747 143.81 87.6828 143.266C86.4326 142.723 85.3074 141.97 84.3489 140.967C83.3904 139.963 82.6819 138.793 82.1818 137.455C81.6817 136.117 81.4317 134.654 81.4317 133.066V132.94C81.4317 131.435 81.6817 130.056 82.1818 128.76C82.6819 127.464 83.3904 126.293 84.3072 125.332C85.2241 124.37 86.2659 123.576 87.4745 122.991C88.683 122.405 89.9749 122.113 91.3502 122.113C92.3504 122.113 93.2672 122.196 94.059 122.363C94.8925 122.531 95.6426 122.74 96.3511 123.074C97.0596 123.367 97.7264 123.743 98.3932 124.161C99.0599 124.579 99.7267 125.081 100.352 125.666L105.144 119.855C104.269 119.103 103.311 118.434 102.394 117.807C101.435 117.221 100.435 116.72 99.31 116.302C98.2264 115.884 97.0596 115.591 95.7677 115.382C94.5174 115.173 93.1005 115.048 91.5169 115.048C88.8914 115.048 86.4743 115.507 84.2239 116.469C82.0151 117.43 80.0981 118.685 78.4728 120.357C76.8475 121.987 75.5973 123.91 74.6804 126.084C73.7636 128.258 73.3052 130.557 73.3052 133.066V133.149C73.3052 135.741 73.7636 138.124 74.6388 140.298C75.5139 142.472 76.7642 144.353 78.3895 145.942C79.9731 147.53 81.8901 148.784 84.1405 149.662C86.3493 150.54 88.8497 151 91.5169 151C94.6841 151 97.4763 150.457 99.9351 149.37C102.561 148.324 104.686 147.029 106.478 145.524Z" fill="#B66F64"/>
<path fill-rule="evenodd" clip-rule="evenodd" d="M83.5154 0C62.5949 3.13538 56.7605 24.8322 64.7619 50.0407C70.2213 67.2644 85.2241 87.4563 103.769 91.3441C104.561 91.5114 105.311 91.0097 105.519 90.2572C105.77 89.5047 105.436 88.7104 104.728 88.3342C98.2681 85.0316 92.7671 80.9765 87.7662 75.4164C96.8512 83.1085 107.645 88.4596 119.022 92.0548C119.272 92.1384 119.522 92.1384 119.814 92.0966C120.022 92.0548 120.189 92.013 120.397 91.9712C121.106 91.804 121.606 91.2187 121.647 90.508C121.689 89.7973 121.272 89.1703 120.606 88.9194C111.812 85.784 101.602 80.0149 93.3089 71.863C102.144 78.4682 112.396 84.1955 123.856 87.8325C124.231 87.9579 124.565 87.9579 124.898 87.8325C125.356 87.6653 125.773 87.4563 126.148 87.1636C126.607 86.7874 126.815 86.2021 126.69 85.6168C126.565 85.0316 126.19 84.5717 125.606 84.4045C116.647 81.5199 107.895 76.9214 100.977 70.6924C111.396 77.1304 120.356 81.1019 127.815 82.5651C128.274 82.6487 128.69 82.5651 129.065 82.2724C129.441 81.9798 129.649 81.6035 129.691 81.1437C129.732 80.7256 129.774 80.3076 129.774 79.8895C129.816 79.0952 129.316 78.3846 128.524 78.2173C112.062 74.5385 100.268 65.2159 93.0588 50.2497C106.936 56.2279 120.522 55.768 115.105 50.8768C111.729 48.6611 107.812 46.6963 103.477 44.8569C90.3917 39.4222 81.1816 28.5111 81.0149 13.8793C81.0566 9.40615 81.39 4.18051 83.5154 0Z" fill="#B66F64"/>
<path fill-rule="evenodd" clip-rule="evenodd" d="M132.233 12.6251C127.315 13.4194 123.106 10.9947 123.398 6.8978C123.398 6.60516 123.648 6.35433 123.94 6.31253C126.898 5.89448 128.524 6.77238 129.357 8.40278C130.107 9.94957 131.149 10.7857 132.441 11.4127C132.691 11.5382 132.816 11.789 132.774 12.0816C132.691 12.3743 132.483 12.5833 132.233 12.6251ZM88.683 13.8792C88.808 25.4175 96.1844 33.6531 106.478 37.959C129.024 47.3651 140.734 61.4534 136.734 86.0348C154.779 71.5703 164.072 54.472 164.697 34.6982C159.529 44.606 151.445 48.6193 143.235 49.539C148.319 40.5509 150.361 30.4341 149.278 19.2303C152.028 27.8421 152.653 35.6597 151.195 42.7248C177.991 25.2502 160.363 -9.90785 127.023 2.88451C117.98 6.35433 108.437 7.35765 99.8101 2.50826C90.1416 -3.01001 88.5997 5.2674 88.683 13.8792Z" fill="#B66F64"/>
</g>
<defs>
<clipPath id="clip0_106_1753">
<rect width="226" height="151" fill="white"/>
</clipPath>
</defs>
</svg>
