<svg width="162" height="30" viewBox="0 0 162 30" fill="none" xmlns="http://www.w3.org/2000/svg">
<g clip-path="url(#clip0_2_45)">
<path d="M26.0082 28.1132C25.1995 27.8302 24.9973 27.3585 25.4017 26.6038C26.2104 24.9057 27.0191 23.2075 27.8278 21.3208C28.6365 19.5283 29.4452 17.6415 30.2539 15.7547C31.0626 13.8679 31.8713 11.9811 32.68 10.0943C33.4887 8.20755 34.2974 6.41509 35.1061 4.71698C35.3083 4.33962 35.4094 4.0566 35.5104 3.86792C35.6115 3.77358 35.9148 3.67924 36.2181 3.67924H40.2616C40.6659 3.67924 40.8681 3.77358 41.0703 3.96226C41.1714 4.15094 41.3735 4.43396 41.4746 4.81132C43.092 8.20755 44.6084 11.6981 46.2258 15.3774C47.7421 18.9623 49.4606 22.7358 51.1791 26.6981C51.4823 27.4528 51.2802 28.0189 50.5725 28.2075L47.1356 29.1509C46.3269 29.434 45.8214 29.1509 45.5181 28.5849C45.1138 27.7358 44.7094 26.7925 44.3051 25.8491C43.9007 24.9057 43.4964 23.9623 43.092 22.9245H34.1963C33.7919 23.9623 33.3876 24.9057 32.9832 25.8491C32.5789 26.7925 32.1745 27.7358 31.7702 28.6792C31.4669 29.3396 30.9615 29.6226 30.1528 29.2453L26.0082 28.1132ZM40.8681 17.6415L38.442 11.9811C38.0376 12.9245 37.7344 13.8679 37.33 14.8113C36.9257 15.7547 36.6224 16.6981 36.2181 17.6415H40.8681Z" fill="#5F967D"/>
<path d="M55.4248 29.0566C54.7172 29.0566 54.3128 28.6792 54.3128 28.0189L54.0095 5.75472C54.0095 5 54.2117 4.33962 54.7172 3.96227C55.2226 3.58491 55.8291 3.39623 56.5367 3.30189C62.2988 2.83019 66.7466 3.49057 69.6782 5.18868C72.7108 6.88679 74.126 9.43396 74.126 12.8302C74.126 14.2453 73.8228 15.4717 73.2162 16.6038C72.6097 17.7359 71.6999 18.6792 70.4869 19.434C69.2738 20.1887 67.8586 20.7547 66.1401 21.1321C64.4216 21.5094 62.3998 21.6038 60.1759 21.5094L60.0748 28.0189C60.0748 28.6792 59.6705 29.0566 58.9628 29.0566H55.4248ZM60.1759 16.8868C61.389 16.9811 62.3998 16.9811 63.4107 16.7925C64.4216 16.6981 65.2303 16.4151 65.9379 16.1321C66.6455 15.8491 67.151 15.3774 67.5553 14.9057C67.9597 14.3396 68.1618 13.7736 68.1618 13.0189C68.1618 12.2642 67.9597 11.6038 67.5553 11.0377C67.151 10.4717 66.6455 10.0943 65.9379 9.71698C65.2303 9.33962 64.4216 9.15095 63.4107 9.05661C62.3998 8.96227 61.389 8.96227 60.1759 9.05661V16.8868Z" fill="#5F967D"/>
<path d="M78.8772 29.0566C78.1696 29.0566 77.7652 28.6792 77.7652 28.0189L77.3609 5.75472C77.3609 5 77.563 4.33962 78.0685 3.96227C78.5739 3.58491 79.1804 3.39623 79.8881 3.30189C85.6501 2.83019 90.0979 3.49057 93.0295 5.18868C96.0621 6.88679 97.4773 9.43396 97.4773 12.8302C97.4773 14.2453 97.1741 15.4717 96.5676 16.6038C95.961 17.7359 95.0512 18.6792 93.8382 19.434C92.6251 20.1887 91.2099 20.7547 89.4914 21.1321C87.7729 21.5094 85.7511 21.6038 83.5272 21.5094L83.4261 28.0189C83.4261 28.6792 83.0218 29.0566 82.3142 29.0566H78.8772ZM83.5272 16.8868C84.7403 16.9811 85.7511 16.9811 86.762 16.7925C87.7729 16.6981 88.5816 16.4151 89.2892 16.1321C89.9968 15.8491 90.5023 15.3774 90.9066 14.9057C91.311 14.3396 91.5132 13.7736 91.5132 13.0189C91.5132 12.2642 91.311 11.6038 90.9066 11.0377C90.5023 10.4717 89.9968 10.0943 89.2892 9.71698C88.5816 9.33962 87.7729 9.15095 86.762 9.05661C85.7511 8.96227 84.7403 8.96227 83.5272 9.05661V16.8868Z" fill="#B66F63"/>
<path d="M98.7915 28.1132C97.9828 27.8302 97.7806 27.3585 98.185 26.6038C98.9937 24.9057 99.8024 23.2075 100.611 21.3208C101.42 19.5283 102.228 17.6415 103.037 15.7547C103.846 13.8679 104.655 11.9811 105.463 10.0943C106.272 8.20755 107.081 6.41509 107.889 4.71698C108.092 4.33962 108.193 4.0566 108.294 3.86792C108.395 3.67924 108.698 3.5849 109.001 3.5849H113.045C113.449 3.5849 113.651 3.67924 113.854 3.86792C113.955 4.0566 114.157 4.33962 114.258 4.71698C115.875 8.11321 117.392 11.6038 119.009 15.283C120.525 18.8679 122.244 22.6415 123.962 26.6038C124.266 27.3585 124.063 27.9245 123.356 28.1132L119.919 29.0566C119.11 29.3396 118.605 29.0566 118.301 28.4906C117.897 27.6415 117.493 26.6981 117.088 25.7547C116.684 24.8113 116.28 23.8679 115.875 22.8302H106.98C106.575 23.8679 106.171 24.8113 105.767 25.7547C105.362 26.6981 104.958 27.6415 104.553 28.5849C104.25 29.2453 103.745 29.5283 102.936 29.1509L98.7915 28.1132ZM113.651 17.6415L111.225 11.9811C110.821 12.9245 110.518 13.8679 110.113 14.8113C109.709 15.7547 109.406 16.6981 109.001 17.6415H113.651Z" fill="#B66F63"/>
<path d="M137.508 0C134.273 0 134.273 4.71698 137.508 4.71698C140.844 4.71698 140.844 0 137.508 0Z" fill="#B66F63"/>
<path d="M148.628 0.660378C145.393 0.660378 145.393 5.37736 148.628 5.37736C151.964 5.37736 151.964 0.660378 148.628 0.660378Z" fill="#B66F63"/>
<path d="M151.155 30C149.335 30 147.01 29.2453 144.483 26.6981C143.877 26.0377 143.169 25.283 142.563 24.3396C142.158 24.8113 141.653 25.1887 141.147 25.566C136.902 28.8679 133.465 27.9245 131.746 27.1698C125.984 24.3396 122.143 12.8302 125.782 1.60378L131.544 3.20755C128.612 12.0755 131.746 20.7547 134.475 22.0755C134.678 22.1698 135.183 22.4528 136.497 21.6038C137.508 20.9434 138.519 20 139.328 18.9623C137.811 15.6604 137.104 12.2642 138.014 10.0943C138.822 8.11321 141.046 6.79245 143.573 6.88679C146 6.98113 148.021 8.30189 148.729 10.283C149.436 12.4528 148.223 16.1321 146.303 19.434C147.213 20.9434 148.223 22.3585 149.437 23.3962C150.447 24.2453 151.054 24.3396 151.155 24.3396C152.975 23.8679 157.22 16.0377 155.097 4.5283L161.062 3.58491C163.286 15.7547 159.444 28.0189 152.873 29.8113C152.469 29.9057 151.863 30 151.155 30Z" fill="#B66F63"/>
<path d="M1.74709 29.0566C1.03948 29.0566 0.635126 28.6792 0.635126 28.0189L0.230774 4.71698C0.230774 4.0566 0.534038 3.67924 1.24165 3.67924H5.79061C6.49822 3.67924 6.90258 4.0566 6.80149 4.71698L6.7004 13.2075H16.0005L15.8994 4.71698C15.8994 4.0566 16.2027 3.67924 16.9103 3.67924H21.4592C22.1669 3.67924 22.5712 4.0566 22.4701 4.71698L22.0658 28.1132C22.0658 28.7736 21.6614 29.1509 20.9538 29.1509H17.4157C16.7081 29.1509 16.3038 28.7736 16.3038 28.1132L16.1016 18.3962H6.59931V28.1132C6.59931 28.7736 6.19496 29.1509 5.48735 29.1509H1.74709V29.0566Z" fill="#5F967D"/>
</g>
<defs>
<clipPath id="clip0_2_45">
<rect width="161.538" height="30" fill="white" transform="translate(0.230774)"/>
</clipPath>
</defs>
</svg>
